# xmcd
# 
# Track frame offsets:
#     150
#     17113
#     26864
#     47548
#     64589
#     78250
#     99539
#     117817
#     131711
#     148108
# 
# Disc length: 2207
# 
# Revision: 1
# Processed by: cddbd v1.5.2PL0 Copyright (c) Steve Scherf et al.
# Submitted via: fre:ac v1.0.27
# 
DISCID=83089d0a
DTITLE=Various Artist - Rec 5
DYEAR=0
DGENRE=Top 40
TTITLE0=Simply Red - Fake
TTITLE1=Queen - We Will Rock You
TTITLE2=Abba - Lay All Your Love On Me
TTITLE3=Dire straits - Lady Writer
TTITLE4=Machines - Don't Be Cruel
TTITLE5=Grace Jones - Pull Up To The Bumper
TTITLE6=Frank Boeijen Groep - Koud In Mijn Hart
TTITLE7=Dschinghis Khan - Dschinghis Khan
TTITLE8=Ingrid - Tu Es Foutu
TTITLE9=Pretenders - Back On The Chain Gang
EXTD=OTS
EXTT0=
EXTT1=
EXTT2=
EXTT3=
EXTT4=
EXTT5=
EXTT6=
EXTT7=
EXTT8=
EXTT9=
PLAYORDER=
